<svg width="64" height="64" viewBox="0 0 64 64" xmlns="http://www.w3.org/2000/svg">
  <!-- Ícone da Balança da Justiça -->
  <defs>
    <linearGradient id="goldGradient" x1="0%" y1="0%" x2="100%" y2="100%">
      <stop offset="0%" style="stop-color:#FFD700;stop-opacity:1" />
      <stop offset="100%" style="stop-color:#DAA520;stop-opacity:1" />
    </linearGradient>
  </defs>
  
  <!-- Fundo circular escuro -->
  <circle cx="32" cy="32" r="32" fill="#1F2937"/>
  
  <!-- Haste central -->
  <rect x="31" y="12" width="2" height="28" fill="url(#goldGradient)"/>
  
  <!-- Braço horizontal -->
  <rect x="16" y="20" width="32" height="2" fill="url(#goldGradient)"/>
  
  <!-- Prato esquerdo -->
  <ellipse cx="20" cy="28" rx="8" ry="2" fill="url(#goldGradient)"/>
  <!-- Bordas do prato esquerdo -->
  <path d="M12 28 Q12 25 20 25 Q28 25 28 28" fill="none" stroke="url(#goldGradient)" stroke-width="1"/>
  
  <!-- Prato direito -->
  <ellipse cx="44" cy="28" rx="8" ry="2" fill="url(#goldGradient)"/>
  <!-- Bordas do prato direito -->
  <path d="M36 28 Q36 25 44 25 Q52 25 52 28" fill="none" stroke="url(#goldGradient)" stroke-width="1"/>
  
  <!-- Cordas conectando -->
  <line x1="32" y1="20" x2="20" y2="28" stroke="url(#goldGradient)" stroke-width="1"/>
  <line x1="32" y1="20" x2="44" y2="28" stroke="url(#goldGradient)" stroke-width="1"/>
  
  <!-- Base da balança -->
  <rect x="26" y="40" width="12" height="4" rx="2" fill="url(#goldGradient)"/>
  
  <!-- Pontos de apoio -->
  <circle cx="20" cy="28" r="1" fill="#FFD700"/>
  <circle cx="44" cy="28" r="1" fill="#FFD700"/>
  <circle cx="32" cy="20" r="1" fill="#FFD700"/>
</svg>
